<?xml version="1.0" encoding="UTF-8" standalone="no"?><svg xmlns="http://www.w3.org/2000/svg" xmlns:xlink="http://www.w3.org/1999/xlink" contentStyleType="text/css" height="408px" preserveAspectRatio="none" style="width:203px;height:408px;background:#FFFFFF;" version="1.1" viewBox="0 0 203 408" width="203px" zoomAndPan="magnify"><defs/><g><!--MD5=[8e95c13453fed63b2e6aa0fa1b4fbd98]
class Film--><g id="elem_Film"><rect codeLine="4" fill="#F1F1F1" height="96.8906" id="Film" rx="2.5" ry="2.5" style="stroke:#181818;stroke-width:0.5;" width="153" x="25" y="7"/><ellipse cx="83.75" cy="23" fill="#ADD1B2" rx="11" ry="11" style="stroke:#181818;stroke-width:1.0;"/><path d="M86.7188,28.6406 Q86.1406,28.9375 85.5,29.0781 Q84.8594,29.2344 84.1563,29.2344 Q81.6563,29.2344 80.3281,27.5938 Q79.0156,25.9375 79.0156,22.8125 Q79.0156,19.6875 80.3281,18.0313 Q81.6563,16.375 84.1563,16.375 Q84.8594,16.375 85.5,16.5313 Q86.1563,16.6875 86.7188,16.9844 L86.7188,19.7031 Q86.0938,19.125 85.5,18.8594 Q84.9063,18.5781 84.2813,18.5781 Q82.9375,18.5781 82.25,19.6563 Q81.5625,20.7188 81.5625,22.8125 Q81.5625,24.9063 82.25,25.9844 Q82.9375,27.0469 84.2813,27.0469 Q84.9063,27.0469 85.5,26.7813 Q86.0938,26.5 86.7188,25.9219 L86.7188,28.6406 Z " fill="#000000"/><text fill="#000000" font-family="sans-serif" font-size="14" lengthAdjust="spacing" textLength="27" x="104.25" y="27.8467">Film</text><line style="stroke:#181818;stroke-width:0.5;" x1="26" x2="177" y1="39" y2="39"/><ellipse cx="36" cy="52.6484" fill="none" rx="3" ry="3" style="stroke:#038048;stroke-width:1.0;"/><text fill="#000000" font-family="sans-serif" font-size="14" lengthAdjust="spacing" textLength="66" x="45" y="55.9951">Film ID: id</text><ellipse cx="36" cy="68.9453" fill="none" rx="3" ry="3" style="stroke:#038048;stroke-width:1.0;"/><text fill="#000000" font-family="sans-serif" font-size="14" lengthAdjust="spacing" textLength="88" x="45" y="72.292">Name: string</text><ellipse cx="36" cy="85.2422" fill="none" rx="3" ry="3" style="stroke:#038048;stroke-width:1.0;"/><text fill="#000000" font-family="sans-serif" font-size="14" lengthAdjust="spacing" textLength="127" x="45" y="88.5889">Description: string</text><line style="stroke:#181818;stroke-width:0.5;" x1="26" x2="177" y1="95.8906" y2="95.8906"/></g><!--MD5=[2ca1536628238a7dc78c5d90808014f9]
class Session--><g id="elem_Session"><rect codeLine="12" fill="#F1F1F1" height="96.8906" id="Session" rx="2.5" ry="2.5" style="stroke:#181818;stroke-width:0.5;" width="120" x="41.5" y="164"/><ellipse cx="71.35" cy="180" fill="#ADD1B2" rx="11" ry="11" style="stroke:#181818;stroke-width:1.0;"/><path d="M74.3188,185.6406 Q73.7406,185.9375 73.1,186.0781 Q72.4594,186.2344 71.7563,186.2344 Q69.2563,186.2344 67.9281,184.5938 Q66.6156,182.9375 66.6156,179.8125 Q66.6156,176.6875 67.9281,175.0313 Q69.2563,173.375 71.7563,173.375 Q72.4594,173.375 73.1,173.5313 Q73.7563,173.6875 74.3188,173.9844 L74.3188,176.7031 Q73.6938,176.125 73.1,175.8594 Q72.5063,175.5781 71.8813,175.5781 Q70.5375,175.5781 69.85,176.6563 Q69.1625,177.7188 69.1625,179.8125 Q69.1625,181.9063 69.85,182.9844 Q70.5375,184.0469 71.8813,184.0469 Q72.5063,184.0469 73.1,183.7813 Q73.6938,183.5 74.3188,182.9219 L74.3188,185.6406 Z " fill="#000000"/><text fill="#000000" font-family="sans-serif" font-size="14" lengthAdjust="spacing" textLength="55" x="88.65" y="184.8467">Session</text><line style="stroke:#181818;stroke-width:0.5;" x1="42.5" x2="160.5" y1="196" y2="196"/><ellipse cx="52.5" cy="209.6484" fill="none" rx="3" ry="3" style="stroke:#038048;stroke-width:1.0;"/><text fill="#000000" font-family="sans-serif" font-size="14" lengthAdjust="spacing" textLength="94" x="61.5" y="212.9951">Session ID: id</text><ellipse cx="52.5" cy="225.9453" fill="none" rx="3" ry="3" style="stroke:#038048;stroke-width:1.0;"/><text fill="#000000" font-family="sans-serif" font-size="14" lengthAdjust="spacing" textLength="66" x="61.5" y="229.292">Film ID: id</text><ellipse cx="52.5" cy="242.2422" fill="none" rx="3" ry="3" style="stroke:#038048;stroke-width:1.0;"/><text fill="#000000" font-family="sans-serif" font-size="14" lengthAdjust="spacing" textLength="81" x="61.5" y="245.5889">Date: string</text><line style="stroke:#181818;stroke-width:0.5;" x1="42.5" x2="160.5" y1="252.8906" y2="252.8906"/></g><!--MD5=[c6c2aa411a70f0170997fbec83374a43]
class Booking--><g id="elem_Booking"><rect codeLine="20" fill="#F1F1F1" height="80.5938" id="Booking" rx="2.5" ry="2.5" style="stroke:#181818;stroke-width:0.5;" width="189" x="7" y="321"/><ellipse cx="68.75" cy="337" fill="#ADD1B2" rx="11" ry="11" style="stroke:#181818;stroke-width:1.0;"/><path d="M71.7188,342.6406 Q71.1406,342.9375 70.5,343.0781 Q69.8594,343.2344 69.1563,343.2344 Q66.6563,343.2344 65.3281,341.5938 Q64.0156,339.9375 64.0156,336.8125 Q64.0156,333.6875 65.3281,332.0313 Q66.6563,330.375 69.1563,330.375 Q69.8594,330.375 70.5,330.5313 Q71.1563,330.6875 71.7188,330.9844 L71.7188,333.7031 Q71.0938,333.125 70.5,332.8594 Q69.9063,332.5781 69.2813,332.5781 Q67.9375,332.5781 67.25,333.6563 Q66.5625,334.7188 66.5625,336.8125 Q66.5625,338.9063 67.25,339.9844 Q67.9375,341.0469 69.2813,341.0469 Q69.9063,341.0469 70.5,340.7813 Q71.0938,340.5 71.7188,339.9219 L71.7188,342.6406 Z " fill="#000000"/><text fill="#000000" font-family="sans-serif" font-size="14" lengthAdjust="spacing" textLength="57" x="89.25" y="341.8467">Booking</text><line style="stroke:#181818;stroke-width:0.5;" x1="8" x2="195" y1="353" y2="353"/><ellipse cx="18" cy="366.6484" fill="none" rx="3" ry="3" style="stroke:#038048;stroke-width:1.0;"/><text fill="#000000" font-family="sans-serif" font-size="14" lengthAdjust="spacing" textLength="163" x="27" y="369.9951">Booking number: string</text><ellipse cx="18" cy="382.9453" fill="none" rx="3" ry="3" style="stroke:#038048;stroke-width:1.0;"/><text fill="#000000" font-family="sans-serif" font-size="14" lengthAdjust="spacing" textLength="94" x="27" y="386.292">Session ID: id</text><line style="stroke:#181818;stroke-width:0.5;" x1="8" x2="195" y1="393.5938" y2="393.5938"/></g><!--MD5=[0d95e84dde043435a5d0ab500bf47292]
link Film to Session--><g id="link_Film_Session"><path codeLine="25" d="M101.5,104.27 C101.5,123.22 101.5,144.96 101.5,163.89 " fill="none" id="Film-Session" style="stroke:#181818;stroke-width:1.0;"/><text fill="#000000" font-family="sans-serif" font-size="13" lengthAdjust="spacing" textLength="23" x="76.9547" y="123.9144">0..*</text><text fill="#000000" font-family="sans-serif" font-size="13" lengthAdjust="spacing" textLength="8" x="92.9375" y="153.0835">1</text></g><!--MD5=[4c39772110cde5d1d842f57e604587e4]
link Session to Booking--><g id="link_Session_Booking"><path codeLine="26" d="M101.5,261.23 C101.5,280.51 101.5,302.5 101.5,320.88 " fill="none" id="Session-Booking" style="stroke:#181818;stroke-width:1.0;"/><text fill="#000000" font-family="sans-serif" font-size="13" lengthAdjust="spacing" textLength="8" x="92.9625" y="280.8691">1</text><text fill="#000000" font-family="sans-serif" font-size="13" lengthAdjust="spacing" textLength="8" x="92.8375" y="310.0217">1</text></g><!--MD5=[49eb07aa10929f93e977edae64398fec]
@startuml
!define RECTANGLE class

'определение сущности Film'
RECTANGLE Film {
  + Film ID: id
  + Name: string
  + Description: string
}

'определение сущности Session'
'связь 1:N, т.е. у фильма может быть несколько сеансов, но один сеанс - один фильм'
RECTANGLE Session {
  + Session ID: id
  + Film ID: id
  + Date: string
}

'определение сущности Booking'
'связь 1:1, одно бронирование для одного сеанса'
RECTANGLE Booking {
  + Booking number: string
  + Session ID: id
}

Film "0..*" - - "1" Session
Session "1" - - "1" Booking
@enduml

@startuml

class Film {
  + Film ID: id
  + Name: string
  + Description: string
}

class Session {
  + Session ID: id
  + Film ID: id
  + Date: string
}

class Booking {
  + Booking number: string
  + Session ID: id
}

Film "0..*" - - "1" Session
Session "1" - - "1" Booking
@enduml

PlantUML version 1.2022.7(Mon Aug 22 17:01:30 UTC 2022)
(GPL source distribution)
Java Runtime: OpenJDK Runtime Environment
JVM: OpenJDK 64-Bit Server VM
Default Encoding: UTF-8
Language: en
Country: null
--></g></svg>