<?xml version="1.0" encoding="UTF-8" standalone="no"?><svg xmlns="http://www.w3.org/2000/svg" xmlns:xlink="http://www.w3.org/1999/xlink" contentStyleType="text/css" height="408px" preserveAspectRatio="none" style="width:167px;height:408px;background:#FFFFFF;" version="1.1" viewBox="0 0 167 408" width="167px" zoomAndPan="magnify"><defs/><g><!--MD5=[8e95c13453fed63b2e6aa0fa1b4fbd98]
class Film--><g id="elem_Film"><rect codeLine="4" fill="#F1F1F1" height="80.5938" id="Film" rx="2.5" ry="2.5" style="stroke:#181818;stroke-width:0.5;" width="114" x="26.5" y="7"/><ellipse cx="66.25" cy="23" fill="#ADD1B2" rx="11" ry="11" style="stroke:#181818;stroke-width:1.0;"/><path d="M69.2188,28.6406 Q68.6406,28.9375 68,29.0781 Q67.3594,29.2344 66.6563,29.2344 Q64.1563,29.2344 62.8281,27.5938 Q61.5156,25.9375 61.5156,22.8125 Q61.5156,19.6875 62.8281,18.0313 Q64.1563,16.375 66.6563,16.375 Q67.3594,16.375 68,16.5313 Q68.6563,16.6875 69.2188,16.9844 L69.2188,19.7031 Q68.5938,19.125 68,18.8594 Q67.4063,18.5781 66.7813,18.5781 Q65.4375,18.5781 64.75,19.6563 Q64.0625,20.7188 64.0625,22.8125 Q64.0625,24.9063 64.75,25.9844 Q65.4375,27.0469 66.7813,27.0469 Q67.4063,27.0469 68,26.7813 Q68.5938,26.5 69.2188,25.9219 L69.2188,28.6406 Z " fill="#000000"/><text fill="#000000" font-family="sans-serif" font-size="14" lengthAdjust="spacing" textLength="27" x="85.75" y="27.8467">Film</text><line style="stroke:#181818;stroke-width:0.5;" x1="27.5" x2="139.5" y1="39" y2="39"/><ellipse cx="37.5" cy="52.6484" fill="none" rx="3" ry="3" style="stroke:#038048;stroke-width:1.0;"/><text fill="#000000" font-family="sans-serif" font-size="14" lengthAdjust="spacing" textLength="66" x="46.5" y="55.9951">Film ID: id</text><ellipse cx="37.5" cy="68.9453" fill="none" rx="3" ry="3" style="stroke:#038048;stroke-width:1.0;"/><text fill="#000000" font-family="sans-serif" font-size="14" lengthAdjust="spacing" textLength="88" x="46.5" y="72.292">Name: string</text><line style="stroke:#181818;stroke-width:0.5;" x1="27.5" x2="139.5" y1="79.5938" y2="79.5938"/></g><!--MD5=[2ca1536628238a7dc78c5d90808014f9]
class Session--><g id="elem_Session"><rect codeLine="9" fill="#F1F1F1" height="113.1875" id="Session" rx="2.5" ry="2.5" style="stroke:#181818;stroke-width:0.5;" width="153" x="7" y="148"/><ellipse cx="51.75" cy="164" fill="#ADD1B2" rx="11" ry="11" style="stroke:#181818;stroke-width:1.0;"/><path d="M54.7188,169.6406 Q54.1406,169.9375 53.5,170.0781 Q52.8594,170.2344 52.1563,170.2344 Q49.6563,170.2344 48.3281,168.5938 Q47.0156,166.9375 47.0156,163.8125 Q47.0156,160.6875 48.3281,159.0313 Q49.6563,157.375 52.1563,157.375 Q52.8594,157.375 53.5,157.5313 Q54.1563,157.6875 54.7188,157.9844 L54.7188,160.7031 Q54.0938,160.125 53.5,159.8594 Q52.9063,159.5781 52.2813,159.5781 Q50.9375,159.5781 50.25,160.6563 Q49.5625,161.7188 49.5625,163.8125 Q49.5625,165.9063 50.25,166.9844 Q50.9375,168.0469 52.2813,168.0469 Q52.9063,168.0469 53.5,167.7813 Q54.0938,167.5 54.7188,166.9219 L54.7188,169.6406 Z " fill="#000000"/><text fill="#000000" font-family="sans-serif" font-size="14" lengthAdjust="spacing" textLength="55" x="72.25" y="168.8467">Session</text><line style="stroke:#181818;stroke-width:0.5;" x1="8" x2="159" y1="180" y2="180"/><ellipse cx="18" cy="193.6484" fill="none" rx="3" ry="3" style="stroke:#038048;stroke-width:1.0;"/><text fill="#000000" font-family="sans-serif" font-size="14" lengthAdjust="spacing" textLength="94" x="27" y="196.9951">Session ID: id</text><ellipse cx="18" cy="209.9453" fill="none" rx="3" ry="3" style="stroke:#038048;stroke-width:1.0;"/><text fill="#000000" font-family="sans-serif" font-size="14" lengthAdjust="spacing" textLength="66" x="27" y="213.292">Film ID: id</text><ellipse cx="18" cy="226.2422" fill="none" rx="3" ry="3" style="stroke:#038048;stroke-width:1.0;"/><text fill="#000000" font-family="sans-serif" font-size="14" lengthAdjust="spacing" textLength="127" x="27" y="229.5889">Description: string</text><ellipse cx="18" cy="242.5391" fill="none" rx="3" ry="3" style="stroke:#038048;stroke-width:1.0;"/><text fill="#000000" font-family="sans-serif" font-size="14" lengthAdjust="spacing" textLength="81" x="27" y="245.8857">Date: string</text><line style="stroke:#181818;stroke-width:0.5;" x1="8" x2="159" y1="253.1875" y2="253.1875"/></g><!--MD5=[c6c2aa411a70f0170997fbec83374a43]
class Booking--><g id="elem_Booking"><rect codeLine="16" fill="#F1F1F1" height="80.5938" id="Booking" rx="2.5" ry="2.5" style="stroke:#181818;stroke-width:0.5;" width="122" x="22.5" y="321"/><ellipse cx="52.35" cy="337" fill="#ADD1B2" rx="11" ry="11" style="stroke:#181818;stroke-width:1.0;"/><path d="M55.3188,342.6406 Q54.7406,342.9375 54.1,343.0781 Q53.4594,343.2344 52.7563,343.2344 Q50.2563,343.2344 48.9281,341.5938 Q47.6156,339.9375 47.6156,336.8125 Q47.6156,333.6875 48.9281,332.0313 Q50.2563,330.375 52.7563,330.375 Q53.4594,330.375 54.1,330.5313 Q54.7563,330.6875 55.3188,330.9844 L55.3188,333.7031 Q54.6938,333.125 54.1,332.8594 Q53.5063,332.5781 52.8813,332.5781 Q51.5375,332.5781 50.85,333.6563 Q50.1625,334.7188 50.1625,336.8125 Q50.1625,338.9063 50.85,339.9844 Q51.5375,341.0469 52.8813,341.0469 Q53.5063,341.0469 54.1,340.7813 Q54.6938,340.5 55.3188,339.9219 L55.3188,342.6406 Z " fill="#000000"/><text fill="#000000" font-family="sans-serif" font-size="14" lengthAdjust="spacing" textLength="57" x="69.65" y="341.8467">Booking</text><line style="stroke:#181818;stroke-width:0.5;" x1="23.5" x2="143.5" y1="353" y2="353"/><ellipse cx="33.5" cy="366.6484" fill="none" rx="3" ry="3" style="stroke:#038048;stroke-width:1.0;"/><text fill="#000000" font-family="sans-serif" font-size="14" lengthAdjust="spacing" textLength="96" x="42.5" y="369.9951">Booking ID: id</text><ellipse cx="33.5" cy="382.9453" fill="none" rx="3" ry="3" style="stroke:#038048;stroke-width:1.0;"/><text fill="#000000" font-family="sans-serif" font-size="14" lengthAdjust="spacing" textLength="94" x="42.5" y="386.292">Session ID: id</text><line style="stroke:#181818;stroke-width:0.5;" x1="23.5" x2="143.5" y1="393.5938" y2="393.5938"/></g><!--MD5=[0d95e84dde043435a5d0ab500bf47292]
link Film to Session--><g id="link_Film_Session"><path codeLine="21" d="M83.5,88.01 C83.5,106.22 83.5,128.15 83.5,147.98 " fill="none" id="Film-Session" style="stroke:#181818;stroke-width:1.0;"/><text fill="#000000" font-family="sans-serif" font-size="13" lengthAdjust="spacing" textLength="4" x="79.1813" y="107.7714"> </text><text fill="#000000" font-family="sans-serif" font-size="13" lengthAdjust="spacing" textLength="4" x="79.2438" y="136.8408"> </text></g><!--MD5=[4c39772110cde5d1d842f57e604587e4]
link Session to Booking--><g id="link_Session_Booking"><path codeLine="22" d="M83.5,261.02 C83.5,280.83 83.5,302.72 83.5,320.91 " fill="none" id="Session-Booking" style="stroke:#181818;stroke-width:1.0;"/><text fill="#000000" font-family="sans-serif" font-size="13" lengthAdjust="spacing" textLength="4" x="79.2438" y="281.286"> </text><text fill="#000000" font-family="sans-serif" font-size="13" lengthAdjust="spacing" textLength="4" x="79.1688" y="310.0566"> </text></g><!--MD5=[293b4587439835ef7928fcd280ba1e20]
@startuml
!define RECTANGLE class

' kvlklef
RECTANGLE Film {
  + Film ID: id
  + Name: string
}

RECTANGLE Session {
  + Session ID: id
  + Film ID: id
  + Description: string
  + Date: string
}

RECTANGLE Booking {
  + Booking ID: id
  + Session ID: id
}

Film " " - - " " Session
Session " " - - " " Booking
@enduml

@startuml

class Film {
  + Film ID: id
  + Name: string
}

class Session {
  + Session ID: id
  + Film ID: id
  + Description: string
  + Date: string
}

class Booking {
  + Booking ID: id
  + Session ID: id
}

Film " " - - " " Session
Session " " - - " " Booking
@enduml

PlantUML version 1.2022.7(Mon Aug 22 17:01:30 UTC 2022)
(GPL source distribution)
Java Runtime: OpenJDK Runtime Environment
JVM: OpenJDK 64-Bit Server VM
Default Encoding: UTF-8
Language: en
Country: null
--></g></svg>