<?xml version="1.0" encoding="UTF-8" standalone="no"?><svg xmlns="http://www.w3.org/2000/svg" xmlns:xlink="http://www.w3.org/1999/xlink" contentStyleType="text/css" height="251px" preserveAspectRatio="none" style="width:403px;height:251px;background:#FFFFFF;" version="1.1" viewBox="0 0 403 251" width="403px" zoomAndPan="magnify"><defs/><g><!--MD5=[ec0fd6af1f4b2f5d351ec3e663ccf1e2]
class Competitions--><g id="elem_Competitions"><rect codeLine="4" fill="#F1F1F1" height="96.8906" id="Competitions" rx="2.5" ry="2.5" style="stroke:#181818;stroke-width:0.5;" width="162" x="28" y="7"/><ellipse cx="60.1" cy="23" fill="#ADD1B2" rx="11" ry="11" style="stroke:#181818;stroke-width:1.0;"/><path d="M63.0688,28.6406 Q62.4906,28.9375 61.85,29.0781 Q61.2094,29.2344 60.5063,29.2344 Q58.0063,29.2344 56.6781,27.5938 Q55.3656,25.9375 55.3656,22.8125 Q55.3656,19.6875 56.6781,18.0313 Q58.0063,16.375 60.5063,16.375 Q61.2094,16.375 61.85,16.5313 Q62.5063,16.6875 63.0688,16.9844 L63.0688,19.7031 Q62.4438,19.125 61.85,18.8594 Q61.2563,18.5781 60.6313,18.5781 Q59.2875,18.5781 58.6,19.6563 Q57.9125,20.7188 57.9125,22.8125 Q57.9125,24.9063 58.6,25.9844 Q59.2875,27.0469 60.6313,27.0469 Q61.2563,27.0469 61.85,26.7813 Q62.4438,26.5 63.0688,25.9219 L63.0688,28.6406 Z " fill="#000000"/><text fill="#000000" font-family="sans-serif" font-size="14" lengthAdjust="spacing" textLength="92" x="77.9" y="27.8467">Competitions</text><line style="stroke:#181818;stroke-width:0.5;" x1="29" x2="189" y1="39" y2="39"/><ellipse cx="39" cy="52.6484" fill="none" rx="3" ry="3" style="stroke:#038048;stroke-width:1.0;"/><text fill="#000000" font-family="sans-serif" font-size="14" lengthAdjust="spacing" textLength="136" x="48" y="55.9951">CompetitionsID : int</text><ellipse cx="39" cy="68.9453" fill="none" rx="3" ry="3" style="stroke:#038048;stroke-width:1.0;"/><text fill="#000000" font-family="sans-serif" font-size="14" lengthAdjust="spacing" textLength="131" x="48" y="72.292">Description : string</text><ellipse cx="39" cy="85.2422" fill="none" rx="3" ry="3" style="stroke:#038048;stroke-width:1.0;"/><text fill="#000000" font-family="sans-serif" font-size="14" lengthAdjust="spacing" textLength="85" x="48" y="88.5889">Date : string</text><line style="stroke:#181818;stroke-width:0.5;" x1="29" x2="189" y1="95.8906" y2="95.8906"/></g><!--MD5=[a5be8326987d39440958368dd943ecb8]
class Participants--><g id="elem_Participants"><rect codeLine="11" fill="#F1F1F1" height="96.8906" id="Participants" rx="2.5" ry="2.5" style="stroke:#181818;stroke-width:0.5;" width="150" x="235" y="7"/><ellipse cx="267.1" cy="23" fill="#ADD1B2" rx="11" ry="11" style="stroke:#181818;stroke-width:1.0;"/><path d="M270.0688,28.6406 Q269.4906,28.9375 268.85,29.0781 Q268.2094,29.2344 267.5063,29.2344 Q265.0063,29.2344 263.6781,27.5938 Q262.3656,25.9375 262.3656,22.8125 Q262.3656,19.6875 263.6781,18.0313 Q265.0063,16.375 267.5063,16.375 Q268.2094,16.375 268.85,16.5313 Q269.5063,16.6875 270.0688,16.9844 L270.0688,19.7031 Q269.4438,19.125 268.85,18.8594 Q268.2563,18.5781 267.6313,18.5781 Q266.2875,18.5781 265.6,19.6563 Q264.9125,20.7188 264.9125,22.8125 Q264.9125,24.9063 265.6,25.9844 Q266.2875,27.0469 267.6313,27.0469 Q268.2563,27.0469 268.85,26.7813 Q269.4438,26.5 270.0688,25.9219 L270.0688,28.6406 Z " fill="#000000"/><text fill="#000000" font-family="sans-serif" font-size="14" lengthAdjust="spacing" textLength="80" x="284.9" y="27.8467">Participants</text><line style="stroke:#181818;stroke-width:0.5;" x1="236" x2="384" y1="39" y2="39"/><ellipse cx="246" cy="52.6484" fill="none" rx="3" ry="3" style="stroke:#038048;stroke-width:1.0;"/><text fill="#000000" font-family="sans-serif" font-size="14" lengthAdjust="spacing" textLength="124" x="255" y="55.9951">ParticipantsID : int</text><ellipse cx="246" cy="68.9453" fill="none" rx="3" ry="3" style="stroke:#038048;stroke-width:1.0;"/><text fill="#000000" font-family="sans-serif" font-size="14" lengthAdjust="spacing" textLength="92" x="255" y="72.292">Name : string</text><ellipse cx="246" cy="85.2422" fill="none" rx="3" ry="3" style="stroke:#038048;stroke-width:1.0;"/><text fill="#000000" font-family="sans-serif" font-size="14" lengthAdjust="spacing" textLength="87" x="255" y="88.5889">Rank : string</text><line style="stroke:#181818;stroke-width:0.5;" x1="236" x2="384" y1="95.8906" y2="95.8906"/></g><!--MD5=[f856f85595ce4f8bf435bc42f531c692]
class Results--><g id="elem_Results"><rect codeLine="19" fill="#F1F1F1" height="80.5938" id="Results" rx="2.5" ry="2.5" style="stroke:#181818;stroke-width:0.5;" width="150" x="246" y="164"/><ellipse cx="290.75" cy="180" fill="#ADD1B2" rx="11" ry="11" style="stroke:#181818;stroke-width:1.0;"/><path d="M293.7188,185.6406 Q293.1406,185.9375 292.5,186.0781 Q291.8594,186.2344 291.1563,186.2344 Q288.6563,186.2344 287.3281,184.5938 Q286.0156,182.9375 286.0156,179.8125 Q286.0156,176.6875 287.3281,175.0313 Q288.6563,173.375 291.1563,173.375 Q291.8594,173.375 292.5,173.5313 Q293.1563,173.6875 293.7188,173.9844 L293.7188,176.7031 Q293.0938,176.125 292.5,175.8594 Q291.9063,175.5781 291.2813,175.5781 Q289.9375,175.5781 289.25,176.6563 Q288.5625,177.7188 288.5625,179.8125 Q288.5625,181.9063 289.25,182.9844 Q289.9375,184.0469 291.2813,184.0469 Q291.9063,184.0469 292.5,183.7813 Q293.0938,183.5 293.7188,182.9219 L293.7188,185.6406 Z " fill="#000000"/><text fill="#000000" font-family="sans-serif" font-size="14" lengthAdjust="spacing" textLength="52" x="311.25" y="184.8467">Results</text><line style="stroke:#181818;stroke-width:0.5;" x1="247" x2="395" y1="196" y2="196"/><ellipse cx="257" cy="209.6484" fill="none" rx="3" ry="3" style="stroke:#038048;stroke-width:1.0;"/><text fill="#000000" font-family="sans-serif" font-size="14" lengthAdjust="spacing" textLength="124" x="266" y="212.9951">ParticipantsID : int</text><ellipse cx="257" cy="225.9453" fill="none" rx="3" ry="3" style="stroke:#038048;stroke-width:1.0;"/><text fill="#000000" font-family="sans-serif" font-size="14" lengthAdjust="spacing" textLength="96" x="266" y="229.292">Result : string</text><line style="stroke:#181818;stroke-width:0.5;" x1="247" x2="395" y1="236.5938" y2="236.5938"/></g><!--MD5=[fbc5af610102403e4af5c512cbe05387]
class CompetitionsParticipants--><g id="elem_CompetitionsParticipants"><rect codeLine="25" fill="#F1F1F1" height="80.5938" id="CompetitionsParticipants" rx="2.5" ry="2.5" style="stroke:#181818;stroke-width:0.5;" width="204" x="7" y="164"/><ellipse cx="22" cy="180" fill="#ADD1B2" rx="11" ry="11" style="stroke:#181818;stroke-width:1.0;"/><path d="M24.9688,185.6406 Q24.3906,185.9375 23.75,186.0781 Q23.1094,186.2344 22.4063,186.2344 Q19.9063,186.2344 18.5781,184.5938 Q17.2656,182.9375 17.2656,179.8125 Q17.2656,176.6875 18.5781,175.0313 Q19.9063,173.375 22.4063,173.375 Q23.1094,173.375 23.75,173.5313 Q24.4063,173.6875 24.9688,173.9844 L24.9688,176.7031 Q24.3438,176.125 23.75,175.8594 Q23.1563,175.5781 22.5313,175.5781 Q21.1875,175.5781 20.5,176.6563 Q19.8125,177.7188 19.8125,179.8125 Q19.8125,181.9063 20.5,182.9844 Q21.1875,184.0469 22.5313,184.0469 Q23.1563,184.0469 23.75,183.7813 Q24.3438,183.5 24.9688,182.9219 L24.9688,185.6406 Z " fill="#000000"/><text fill="#000000" font-family="sans-serif" font-size="14" lengthAdjust="spacing" textLength="172" x="36" y="184.8467">CompetitionsParticipants</text><line style="stroke:#181818;stroke-width:0.5;" x1="8" x2="210" y1="196" y2="196"/><ellipse cx="18" cy="209.6484" fill="none" rx="3" ry="3" style="stroke:#038048;stroke-width:1.0;"/><text fill="#000000" font-family="sans-serif" font-size="14" lengthAdjust="spacing" textLength="124" x="27" y="212.9951">ParticipantsID : int</text><ellipse cx="18" cy="225.9453" fill="none" rx="3" ry="3" style="stroke:#038048;stroke-width:1.0;"/><text fill="#000000" font-family="sans-serif" font-size="14" lengthAdjust="spacing" textLength="136" x="27" y="229.292">CompetitionsID : int</text><line style="stroke:#181818;stroke-width:0.5;" x1="8" x2="210" y1="236.5938" y2="236.5938"/></g><!--MD5=[46e0694a92042181340dd0d989b6b938]
link Participants to Results--><g id="link_Participants_Results"><path codeLine="30" d="M313.57,104.23 C315.01,123.51 316.66,145.5 318.03,163.88 " fill="none" id="Participants-Results" style="stroke:#181818;stroke-width:1.0;"/><text fill="#000000" font-family="sans-serif" font-size="13" lengthAdjust="spacing" textLength="8" x="305.5122" y="123.8691">1</text><text fill="#000000" font-family="sans-serif" font-size="13" lengthAdjust="spacing" textLength="8" x="308.8756" y="153.0217">1</text></g><!--MD5=[de8fe8f46b7fb784b47d70d8aef2cf7b]
link Competitions to CompetitionsParticipants--><g id="link_Competitions_CompetitionsParticipants"><path codeLine="31" d="M109,104.23 C109,123.51 109,145.5 109,163.88 " fill="none" id="Competitions-CompetitionsParticipants" style="stroke:#181818;stroke-width:1.0;"/><text fill="#000000" font-family="sans-serif" font-size="13" lengthAdjust="spacing" textLength="23" x="84.4547" y="123.8691">0..*</text><text fill="#000000" font-family="sans-serif" font-size="13" lengthAdjust="spacing" textLength="23" x="84.0953" y="153.0217">0..*</text></g><!--MD5=[900c10302b62ea53ae8c9b69563ce589]
link Participants to CompetitionsParticipants--><g id="link_Participants_CompetitionsParticipants"><path codeLine="32" d="M245.02,104.02 C218.64,123.32 188.51,145.35 163.33,163.77 " fill="none" id="Participants-CompetitionsParticipants" style="stroke:#181818;stroke-width:1.0;"/><text fill="#000000" font-family="sans-serif" font-size="13" lengthAdjust="spacing" textLength="23" x="211.265" y="123.9817">0..*</text><text fill="#000000" font-family="sans-serif" font-size="13" lengthAdjust="spacing" textLength="23" x="147.4237" y="152.8934">0..*</text></g><!--MD5=[84553dc7605c9e7c70a5fa662e8377d2]
@startuml
!define RECTANGLE class

'Создание сущности Competitions'
RECTANGLE Competitions {
  + CompetitionsID : int
  + Description : string
  + Date : string
}

'Создание сущности Participants'
RECTANGLE Participants {
  + ParticipantsID : int
  + Name : string
  + Rank : string
}

'Создание сущности Result'
'Связь 1:1, т.к. один участник заканчивает соревнование с одним результатом'
RECTANGLE Results {
  + ParticipantsID : int
  + Result : string
}

'Связь N:M, т.к. в одном соревновании могут участвовать несколько человек, и один человек может принимать участие в нескольких соревнованиях'
RECTANGLE CompetitionsParticipants {
  + ParticipantsID : int
  + CompetitionsID : int
}

Participants "1" - - "1" Results
Competitions "0..*" - - "0..*" CompetitionsParticipants
Participants "0..*" - - "0..*" CompetitionsParticipants
@enduml

@startuml

class Competitions {
  + CompetitionsID : int
  + Description : string
  + Date : string
}

class Participants {
  + ParticipantsID : int
  + Name : string
  + Rank : string
}

class Results {
  + ParticipantsID : int
  + Result : string
}

class CompetitionsParticipants {
  + ParticipantsID : int
  + CompetitionsID : int
}

Participants "1" - - "1" Results
Competitions "0..*" - - "0..*" CompetitionsParticipants
Participants "0..*" - - "0..*" CompetitionsParticipants
@enduml

PlantUML version 1.2022.7(Mon Aug 22 17:01:30 UTC 2022)
(GPL source distribution)
Java Runtime: OpenJDK Runtime Environment
JVM: OpenJDK 64-Bit Server VM
Default Encoding: UTF-8
Language: en
Country: null
--></g></svg>